<svg xmlns="http://www.w3.org/2000/svg" viewBox="0 0 64 64" fill="none">
  <defs>
    <linearGradient id="bg" x1="12" y1="8" x2="54" y2="58" gradientUnits="userSpaceOnUse">
      <stop stop-color="#8B5CF6"/>
      <stop offset="1" stop-color="#6D47FF"/>
    </linearGradient>
    <linearGradient id="horn" x1="18" y1="10" x2="24" y2="24" gradientUnits="userSpaceOnUse">
      <stop stop-color="#F6C084"/>
      <stop offset="1" stop-color="#C98244"/>
    </linearGradient>
    <linearGradient id="hornR" x1="40" y1="10" x2="46" y2="24" gradientUnits="userSpaceOnUse">
      <stop stop-color="#F6C084"/>
      <stop offset="1" stop-color="#C98244"/>
    </linearGradient>
  </defs>
  <rect x="4" y="4" width="56" height="56" rx="18" fill="url(#bg)"/>
  <path d="M19 13c-2 1-4 5-4 9 0 2 1 3 3 3 5 0 9-7 9-12 0-3-3-3-8 0Z" fill="url(#horn)"/>
  <path d="M45 13c2 1 4 5 4 9 0 2-1 3-3 3-5 0-9-7-9-12 0-3 3-3 8 0Z" fill="url(#hornR)"/>
  <path d="M17 31c0-9 7-16 15-16s15 7 15 16c0 10-7 17-15 17S17 41 17 31Z" fill="#FFF8F4"/>
  <path d="M19 23c3-4 8-6 13-6 5 0 10 2 13 6-3 2-6 3-10 3-3 0-6-1-9-2-2-1-4-1-7-1Z" fill="#4B2E2E"/>
  <ellipse cx="26" cy="33" rx="2.2" ry="3.2" fill="#2D1C1C"/>
  <ellipse cx="38" cy="33" rx="2.2" ry="3.2" fill="#2D1C1C"/>
  <ellipse cx="32" cy="39" rx="9.5" ry="6.6" fill="#FFB8A8"/>
  <ellipse cx="28.5" cy="39" rx="1.6" ry="2.1" fill="#8E4C43"/>
  <ellipse cx="35.5" cy="39" rx="1.6" ry="2.1" fill="#8E4C43"/>
  <path d="M26.5 43c1.8 1.8 3.7 2.6 5.5 2.6s3.7-.8 5.5-2.6" stroke="#8E4C43" stroke-linecap="round" stroke-width="2.2"/>
  <ellipse cx="20.5" cy="35.5" rx="3.6" ry="4.8" fill="#FFD4C9"/>
  <ellipse cx="43.5" cy="35.5" rx="3.6" ry="4.8" fill="#FFD4C9"/>
</svg>
